<?xml version="1.0" encoding="UTF-8"?>
<svg width="200px" height="200px" viewBox="0 0 200 200" version="1.1" xmlns="http://www.w3.org/2000/svg" xmlns:xlink="http://www.w3.org/1999/xlink">
    <title>404 Not Found</title>
    <g stroke="none" stroke-width="1" fill="none" fill-rule="evenodd">
        <rect fill="#F8F9FA" x="0" y="0" width="200" height="200" rx="100"></rect>
        <g transform="translate(40, 30)" fill="#6C757D">
            <path d="M60,0 L120,0 L120,20 L60,20 L60,0 Z M60,50 L100,50 L100,70 L60,70 L60,50 Z M60,100 L100,100 L100,120 L60,120 L60,100 Z M0,0 L40,0 L40,140 L0,140 L0,0 Z"></path>
            <path d="M110,50 L110,70 L120,70 L120,50 L110,50 Z M110,100 L110,120 L120,120 L120,100 L110,100 Z" fill="#DC3545"></path>
        </g>
        <text font-family="Arial, sans-serif" font-size="12" font-weight="bold" fill="#6C757D">
            <tspan x="50" y="180">PAGE NOT FOUND</tspan>
        </text>
    </g>
</svg>
